<svg width="749" height="380" viewBox="0 0 749 380" fill="none" xmlns="http://www.w3.org/2000/svg">
<g clip-path="url(#clip0)">
<path d="M-96 137C-45 192 70.2 285.5 123 219.5C189 137 94 155.5 85 187.5C76 219.5 55 284.5 148 284.5C241 284.5 327 233.5 295 219.5C263 205.5 195 257 245 311C295 365 511 337.5 519.5 311C528 284.5 523 241.5 480 284.5C437 327.5 526 385 616 367C688 352.6 735.667 337 750.5 331" stroke="black"/>
<g opacity="0.4" filter="url(#filter0_f)">
<ellipse cx="188.5" cy="171" rx="105.5" ry="83" fill="#FF62FF"/>
</g>
<path d="M253.833 196.509V197.009H254.333V196.509H253.833ZM241.233 196.509H240.733V197.009H241.233V196.509ZM241.233 184.639H241.733V184.169L241.264 184.14L241.233 184.639ZM208.91 173.317L208.585 173.697L208.587 173.699L208.91 173.317ZM196.948 147.02V146.52H196.445L196.448 147.023L196.948 147.02ZM219.228 147.02L219.726 146.979L219.688 146.52H219.228V147.02ZM225.71 160.077L225.378 160.451L225.384 160.456L225.71 160.077ZM241.233 166.286L241.176 166.783L241.733 166.847V166.286H241.233ZM241.233 126.384H241.733V125.994L241.354 125.899L241.233 126.384ZM232.467 124.193L232.589 123.708L232.585 123.707L232.467 124.193ZM208.179 111.227L207.809 111.564L207.811 111.566L208.179 111.227ZM210.827 62.2856L211.163 62.6558L211.165 62.6542L210.827 62.2856ZM241.233 50.5068L241.277 51.0049L241.733 50.9642V50.5068H241.233ZM241.233 37.9062V37.4062H240.733V37.9062H241.233ZM253.833 37.9062H254.333V37.4062H253.833V37.9062ZM253.833 50.5068H253.333V50.9643L253.789 51.0049L253.833 50.5068ZM283.326 62.377L282.987 62.7439L282.99 62.7468L283.326 62.377ZM294.831 87.9434V88.4434H295.343L295.331 87.9315L294.831 87.9434ZM273.008 87.9434L272.508 87.9559L272.521 88.4434H273.008V87.9434ZM267.438 75.4341L267.088 75.7907L267.091 75.7937L267.438 75.4341ZM253.833 69.1338L253.899 68.6381L253.333 68.5635V69.1338H253.833ZM253.833 107.027H253.333V107.432L253.73 107.516L253.833 107.027ZM262.873 108.944L262.988 108.458L262.977 108.455L262.873 108.944ZM285.883 172.678L286.216 173.05L286.218 173.049L285.883 172.678ZM253.833 184.457L253.794 183.958L253.333 183.995V184.457H253.833ZM269.812 135.606L269.476 135.976L269.483 135.982L269.812 135.606ZM253.833 128.758L253.932 128.268L253.333 128.147V128.758H253.833ZM253.833 166.469H253.333V167.002L253.865 166.968L253.833 166.469ZM227.171 97.9873L226.828 98.351L226.832 98.3544L227.171 97.9873ZM241.233 104.379L241.131 104.868L241.733 104.994V104.379H241.233ZM241.233 69.0425H241.733V68.5139L241.205 68.5433L241.233 69.0425ZM227.628 74.4297L227.29 74.0608L227.287 74.0637L227.628 74.4297ZM253.833 196.009H241.233V197.009H253.833V196.009ZM241.733 196.509V184.639H240.733V196.509H241.733ZM241.264 184.14C227.702 183.293 217.041 179.543 209.233 172.935L208.587 173.699C216.605 180.483 227.493 184.281 241.202 185.138L241.264 184.14ZM209.234 172.937C201.436 166.278 197.508 157.652 197.448 147.017L196.448 147.023C196.51 157.937 200.557 166.842 208.585 173.697L209.234 172.937ZM196.948 147.52H219.228V146.52H196.948V147.52ZM218.729 147.061C219.166 152.423 221.385 156.895 225.378 160.451L226.043 159.704C222.244 156.32 220.142 152.087 219.726 146.979L218.729 147.061ZM225.384 160.456C229.433 163.944 234.708 166.044 241.176 166.783L241.29 165.789C234.974 165.068 229.902 163.028 226.037 159.698L225.384 160.456ZM241.733 166.286V126.384H240.733V166.286H241.733ZM241.354 125.899L232.589 123.708L232.346 124.678L241.112 126.869L241.354 125.899ZM232.585 123.707C222.059 121.166 214.062 116.883 208.547 110.889L207.811 111.566C213.497 117.746 221.692 122.106 232.35 124.679L232.585 123.707ZM208.549 110.891C203.103 104.906 200.37 97.421 200.37 88.3999H199.37C199.37 97.6405 202.177 105.374 207.809 111.564L208.549 110.891ZM200.37 88.3999C200.37 77.752 203.973 69.1868 211.163 62.6558L210.491 61.9155C203.072 68.6547 199.37 77.499 199.37 88.3999H200.37ZM211.165 62.6542C218.367 56.0528 228.387 52.1547 241.277 51.0049L241.188 50.0088C228.148 51.1721 217.897 55.1266 210.489 61.9171L211.165 62.6542ZM241.733 50.5068V37.9062H240.733V50.5068H241.733ZM241.233 38.4062H253.833V37.4062H241.233V38.4062ZM253.333 37.9062V50.5068H254.333V37.9062H253.333ZM253.789 51.0049C266.001 52.0931 275.719 56.0173 282.987 62.7439L283.666 62.01C276.202 55.1012 266.258 51.112 253.878 50.0088L253.789 51.0049ZM282.99 62.7468C290.312 69.4091 294.091 77.8006 294.331 87.9552L295.331 87.9315C295.084 77.5113 291.193 68.8585 283.663 62.0071L282.99 62.7468ZM294.831 87.4434H273.008V88.4434H294.831V87.4434ZM273.508 87.9309C273.383 82.9262 271.469 78.6329 267.786 75.0745L267.091 75.7937C270.591 79.1748 272.39 83.2209 272.508 87.9559L273.508 87.9309ZM267.789 75.0775C264.171 71.522 259.531 69.3808 253.899 68.6381L253.768 69.6295C259.214 70.3477 263.645 72.4067 267.088 75.7907L267.789 75.0775ZM253.333 69.1338V107.027H254.333V69.1338H253.333ZM253.73 107.516L262.769 109.433L262.977 108.455L253.937 106.538L253.73 107.516ZM262.758 109.431C274.269 112.157 282.78 116.475 288.351 122.346L289.076 121.657C283.324 115.596 274.609 111.21 262.988 108.458L262.758 109.431ZM288.351 122.346C293.909 128.203 296.705 135.863 296.705 145.376H297.705C297.705 135.654 294.84 127.731 289.076 121.657L288.351 122.346ZM296.705 145.376C296.705 156.637 292.978 165.596 285.548 172.307L286.218 173.049C293.884 166.124 297.705 156.882 297.705 145.376H296.705ZM285.549 172.305C278.108 178.966 267.542 182.868 253.794 183.958L253.873 184.955C267.761 183.854 278.561 179.903 286.216 173.05L285.549 172.305ZM253.333 184.457V196.509H254.333V184.457H253.333ZM275.517 147.75C275.517 142.569 273.731 138.379 270.142 135.231L269.483 135.982C272.833 138.921 274.517 142.827 274.517 147.75H275.517ZM270.149 135.237C266.644 132.045 261.217 129.737 253.932 128.268L253.735 129.248C260.938 130.701 266.163 132.959 269.476 135.976L270.149 135.237ZM253.333 128.758V166.469H254.333V128.758H253.333ZM253.865 166.968C260.633 166.537 265.957 164.656 269.779 161.273L269.116 160.525C265.511 163.716 260.426 165.548 253.802 165.97L253.865 166.968ZM269.779 161.273C273.611 157.881 275.517 153.355 275.517 147.75H274.517C274.517 153.103 272.71 157.343 269.116 160.525L269.779 161.273ZM221.832 86.5737C221.832 91.2723 223.499 95.2098 226.828 98.351L227.514 97.6236C224.392 94.6775 222.832 91.0061 222.832 86.5737H221.832ZM226.832 98.3544C230.148 101.42 234.93 103.579 241.131 104.868L241.335 103.889C235.239 102.622 230.648 100.52 227.511 97.6202L226.832 98.3544ZM241.733 104.379V69.0425H240.733V104.379H241.733ZM241.205 68.5433C235.627 68.8531 230.978 70.6859 227.29 74.0609L227.966 74.7985C231.461 71.5992 235.882 69.8405 241.261 69.5417L241.205 68.5433ZM227.287 74.0637C223.655 77.4451 221.832 81.6255 221.832 86.5737H222.832C222.832 81.9041 224.539 77.9885 227.969 74.7956L227.287 74.0637Z" fill="black"/>
<path d="M333.148 223.409L332.913 223.634L333.137 223.869L333.372 223.644L333.148 223.409ZM327.494 217.485L327.27 217.249L327.035 217.474L327.259 217.709L327.494 217.485ZM333.076 212.159L333.3 212.394L333.521 212.183L333.324 211.95L333.076 212.159ZM323.897 191.88L323.573 191.898L323.573 191.9L323.897 191.88ZM330.895 174.457L331.13 174.233L330.905 173.997L330.669 174.223L330.895 174.457ZM340.891 184.933L341.134 185.149L341.333 184.926L341.126 184.709L340.891 184.933ZM337.66 193.84L337.336 193.851L337.336 193.856L337.66 193.84ZM341.705 203.924L341.446 204.12L341.666 204.411L341.93 204.159L341.705 203.924ZM360.467 186.021L360.692 186.257L360.875 186.081L360.75 185.861L360.467 186.021ZM357.565 180.917L357.847 180.756L357.846 180.754L357.565 180.917ZM352.764 163.679L352.44 163.656L352.44 163.658L352.764 163.679ZM376.965 142.965L376.941 143.289L376.943 143.29L376.965 142.965ZM396.145 151.977L395.931 152.222L396.155 152.418L396.37 152.213L396.145 151.977ZM402.07 146.324L402.305 146.1L402.081 145.864L401.846 146.089L402.07 146.324ZM407.724 152.249L407.948 152.484L408.183 152.26L407.959 152.024L407.724 152.249ZM401.799 157.902L401.574 157.667L401.359 157.872L401.545 158.105L401.799 157.902ZM409.45 177.096L409.125 177.101L409.125 177.103L409.45 177.096ZM402.59 193.976L402.355 194.201L402.585 194.441L402.82 194.206L402.59 193.976ZM392.799 183.715L392.569 183.486L392.345 183.71L392.564 183.939L392.799 183.715ZM396.182 175.484L395.857 175.479L395.857 175.482L396.182 175.484ZM393.04 166.26L393.303 166.068L393.084 165.769L392.816 166.025L393.04 166.26ZM375.223 183.261L374.999 183.026L374.808 183.208L374.946 183.432L375.223 183.261ZM378.377 188.372L378.658 188.208L378.654 188.201L378.377 188.372ZM358.733 227.787L358.708 228.111L358.709 228.111L358.733 227.787ZM338.815 218.002L339.032 217.759L338.808 217.559L338.591 217.767L338.815 218.002ZM368.954 203.597L368.629 203.605L368.629 203.611L368.954 203.597ZM365.005 193.011L365.279 192.838L365.068 192.502L364.78 192.776L365.005 193.011ZM347.273 209.931L347.049 209.696L346.798 209.935L347.053 210.17L347.273 209.931ZM367.511 166.669L367.186 166.671L367.186 166.674L367.511 166.669ZM370.814 176.148L370.539 176.32L370.75 176.659L371.039 176.383L370.814 176.148ZM387.43 160.294L387.654 160.529L387.903 160.292L387.652 160.057L387.43 160.294ZM378.792 156.314L378.814 155.99L378.812 155.989L378.792 156.314ZM333.383 223.185L327.729 217.26L327.259 217.709L332.913 223.634L333.383 223.185ZM327.719 217.72L333.3 212.394L332.851 211.924L327.27 217.249L327.719 217.72ZM333.324 211.95C327.638 205.192 324.618 198.497 324.221 191.861L323.573 191.9C323.98 198.714 327.079 205.538 332.827 212.368L333.324 211.95ZM324.221 191.862C323.853 185.208 326.147 179.491 331.121 174.691L330.669 174.223C325.565 179.149 323.194 185.048 323.573 191.898L324.221 191.862ZM330.66 174.682L340.656 185.157L341.126 184.709L331.13 174.233L330.66 174.682ZM340.649 184.717C338.323 187.328 337.216 190.378 337.336 193.851L337.985 193.829C337.872 190.524 338.919 187.636 341.134 185.149L340.649 184.717ZM337.336 193.856C337.512 197.325 338.892 200.748 341.446 204.12L341.964 203.728C339.47 200.435 338.153 197.134 337.985 193.823L337.336 193.856ZM341.93 204.159L360.692 186.257L360.243 185.786L341.481 203.689L341.93 204.159ZM360.75 185.861L357.847 180.756L357.282 181.077L360.185 186.182L360.75 185.861ZM357.846 180.754C354.318 174.665 352.744 168.983 353.088 163.7L352.44 163.658C352.085 169.104 353.711 174.914 357.284 181.08L357.846 180.754ZM353.088 163.702C353.459 158.456 355.752 153.813 359.994 149.765L359.545 149.295C355.2 153.441 352.823 158.23 352.44 163.656L353.088 163.702ZM359.994 149.765C365.001 144.988 370.645 142.839 376.941 143.289L376.988 142.641C370.49 142.176 364.671 144.404 359.545 149.295L359.994 149.765ZM376.943 143.29C383.278 143.714 389.607 146.676 395.931 152.222L396.359 151.733C389.961 146.123 383.503 143.078 376.986 142.641L376.943 143.29ZM396.37 152.213L402.294 146.559L401.846 146.089L395.921 151.742L396.37 152.213ZM401.835 146.548L407.489 152.473L407.959 152.024L402.305 146.1L401.835 146.548ZM407.499 152.014L401.574 157.667L402.023 158.137L407.948 152.484L407.499 152.014ZM401.545 158.105C406.512 164.335 409.027 170.666 409.125 177.101L409.775 177.091C409.675 170.481 407.089 164.016 402.053 157.7L401.545 158.105ZM409.125 177.103C409.278 183.536 407.027 189.077 402.361 193.746L402.82 194.206C407.609 189.415 409.932 183.703 409.775 177.088L409.125 177.103ZM402.826 193.752L393.034 183.491L392.564 183.939L402.355 194.201L402.826 193.752ZM393.029 183.944C395.326 181.64 396.486 178.814 396.507 175.486L395.857 175.482C395.838 178.644 394.742 181.306 392.569 183.486L393.029 183.944ZM396.507 175.488C396.556 172.192 395.481 169.05 393.303 166.068L392.778 166.451C394.884 169.334 395.903 172.341 395.857 175.479L396.507 175.488ZM392.816 166.025L374.999 183.026L375.447 183.496L393.265 166.495L392.816 166.025ZM374.946 183.432L378.1 188.543L378.654 188.201L375.499 183.091L374.946 183.432ZM378.097 188.536C381.979 195.172 383.768 201.111 383.507 206.364L384.156 206.397C384.425 200.973 382.577 194.907 378.658 188.208L378.097 188.536ZM383.507 206.364C383.247 211.606 380.899 216.358 376.426 220.626L376.875 221.096C381.446 216.734 383.886 211.832 384.156 206.397L383.507 206.364ZM376.426 220.626C371.131 225.678 365.246 227.945 358.757 227.462L358.709 228.111C365.405 228.609 371.465 226.258 376.875 221.096L376.426 220.626ZM358.759 227.463C352.288 226.952 345.713 223.735 339.032 217.759L338.598 218.244C345.347 224.28 352.051 227.586 358.708 228.111L358.759 227.463ZM338.591 217.767L332.924 223.174L333.372 223.644L339.039 218.237L338.591 217.767ZM365.803 211.728C368.239 209.404 369.409 206.684 369.279 203.584L368.629 203.611C368.751 206.505 367.67 209.049 365.355 211.258L365.803 211.728ZM369.279 203.59C369.207 200.51 367.857 196.922 365.279 192.838L364.73 193.185C367.279 197.224 368.561 200.693 368.629 203.605L369.279 203.59ZM364.78 192.776L347.049 209.696L347.497 210.166L365.229 193.247L364.78 192.776ZM347.053 210.17C350.292 213.159 353.565 214.818 356.87 215.098L356.925 214.45C353.807 214.187 350.664 212.618 347.493 209.692L347.053 210.17ZM356.87 215.098C360.185 215.377 363.168 214.243 365.803 211.728L365.355 211.258C362.838 213.66 360.033 214.712 356.925 214.45L356.87 215.098ZM370.482 159.037C368.273 161.145 367.169 163.696 367.186 166.671L367.836 166.667C367.82 163.877 368.846 161.496 370.931 159.507L370.482 159.037ZM367.186 166.674C367.232 169.608 368.363 172.826 370.539 176.32L371.09 175.977C368.951 172.542 367.879 169.44 367.836 166.664L367.186 166.674ZM371.039 176.383L387.654 160.529L387.205 160.059L370.59 175.913L371.039 176.383ZM387.652 160.057C385.004 157.573 382.056 156.209 378.814 155.99L378.771 156.638C381.843 156.846 384.654 158.136 387.207 160.531L387.652 160.057ZM378.812 155.989C375.592 155.799 372.809 156.817 370.482 159.037L370.931 159.507C373.126 157.412 375.733 156.458 378.773 156.638L378.812 155.989Z" fill="black"/>
<path d="M385.714 255.367L385.556 255.409L385.598 255.567L385.756 255.525L385.714 255.367ZM384.648 251.39L384.606 251.232L384.448 251.274L384.49 251.432L384.648 251.39ZM388.395 250.386L388.437 250.544L388.585 250.504L388.555 250.354L388.395 250.386ZM389.235 239.226L389.087 239.155L389.087 239.156L389.235 239.226ZM396.524 233.226L396.681 233.184L396.639 233.025L396.48 233.068L396.524 233.226ZM398.408 240.258L398.463 240.412L398.605 240.362L398.566 240.216L398.408 240.258ZM394.835 243.409L394.689 243.336L394.688 243.338L394.835 243.409ZM394.188 248.834L394.026 248.858L394.053 249.039L394.23 248.991L394.188 248.834ZM406.783 245.459L406.825 245.617L406.948 245.584L406.946 245.456L406.783 245.459ZM406.733 242.507L406.896 242.504L406.896 242.503L406.733 242.507ZM408.771 233.744L408.634 233.655L408.633 233.656L408.771 233.744ZM424.443 230.44L424.355 230.578L424.356 230.578L424.443 230.44ZM430.733 239.041L430.579 239.098L430.631 239.238L430.775 239.199L430.733 239.041ZM434.71 237.976L434.868 237.933L434.826 237.776L434.668 237.818L434.71 237.976ZM435.776 241.953L435.818 242.111L435.976 242.069L435.934 241.911L435.776 241.953ZM431.799 243.019L431.756 242.861L431.612 242.9L431.638 243.047L431.799 243.019ZM430.546 253.332L430.402 253.256L430.401 253.257L430.546 253.332ZM423.449 259.126L423.292 259.168L423.335 259.329L423.495 259.282L423.449 259.126ZM421.604 252.237L421.557 252.081L421.405 252.126L421.446 252.28L421.604 252.237ZM425.081 249.421L424.939 249.341L424.938 249.342L425.081 249.421ZM425.919 244.594L426.081 244.573L426.057 244.388L425.877 244.436L425.919 244.594ZM413.958 247.799L413.916 247.641L413.788 247.675L413.795 247.808L413.958 247.799ZM414.118 250.814L414.281 250.81L414.281 250.806L414.118 250.814ZM395.947 263.468L395.857 263.604L395.858 263.605L395.947 263.468ZM389.518 254.348L389.672 254.293L389.622 254.151L389.476 254.19L389.518 254.348ZM406.289 255.26L406.144 255.185L406.142 255.188L406.289 255.26ZM407.099 249.637L407.262 249.627L407.25 249.427L407.057 249.479L407.099 249.637ZM395.196 252.826L395.154 252.669L394.985 252.714L395.041 252.879L395.196 252.826ZM414.557 238.619L414.413 238.541L414.412 238.543L414.557 238.619ZM413.728 243.598L413.565 243.607L413.577 243.808L413.771 243.756L413.728 243.598ZM424.882 240.609L424.924 240.767L425.091 240.722L425.037 240.558L424.882 240.609ZM422.031 236.77L422.119 236.633L422.118 236.632L422.031 236.77ZM385.872 255.325L384.806 251.348L384.49 251.432L385.556 255.409L385.872 255.325ZM384.69 251.548L388.437 250.544L388.352 250.228L384.606 251.232L384.69 251.548ZM388.555 250.354C387.675 246.001 387.957 242.319 389.383 239.295L389.087 239.156C387.624 242.261 387.346 246.019 388.235 250.418L388.555 250.354ZM389.382 239.296C390.824 236.271 393.215 234.302 396.567 233.384L396.48 233.068C393.041 234.011 390.572 236.041 389.087 239.155L389.382 239.296ZM396.366 233.268L398.25 240.301L398.566 240.216L396.681 233.184L396.366 233.268ZM398.353 240.104C396.697 240.696 395.474 241.775 394.689 243.336L394.981 243.482C395.727 241.997 396.886 240.975 398.463 240.412L398.353 240.104ZM394.688 243.338C393.929 244.911 393.712 246.754 394.026 248.858L394.349 248.81C394.043 246.755 394.258 244.981 394.982 243.48L394.688 243.338ZM394.23 248.991L406.825 245.617L406.74 245.301L394.146 248.676L394.23 248.991ZM406.946 245.456L406.896 242.504L406.57 242.509L406.619 245.462L406.946 245.456ZM406.896 242.503C406.808 238.965 407.484 236.079 408.909 233.831L408.633 233.656C407.164 235.974 406.48 238.929 406.57 242.511L406.896 242.503ZM408.909 233.832C410.337 231.607 412.469 230.111 415.316 229.348L415.232 229.033C412.315 229.814 410.111 231.354 408.634 233.655L408.909 233.832ZM415.316 229.348C418.677 228.448 421.685 228.86 424.355 230.578L424.532 230.303C421.777 228.531 418.672 228.111 415.232 229.033L415.316 229.348ZM424.356 230.578C427.048 232.293 429.126 235.126 430.579 239.098L430.886 238.985C429.416 234.967 427.301 232.066 424.531 230.302L424.356 230.578ZM430.775 239.199L434.752 238.134L434.668 237.818L430.691 238.884L430.775 239.199ZM434.552 238.018L435.618 241.995L435.934 241.911L434.868 237.933L434.552 238.018ZM435.734 241.795L431.756 242.861L431.841 243.177L435.818 242.111L435.734 241.795ZM431.638 243.047C432.327 246.993 431.91 250.393 430.402 253.256L430.691 253.408C432.24 250.468 432.658 246.992 431.96 242.991L431.638 243.047ZM430.401 253.257C428.917 256.132 426.588 258.034 423.403 258.969L423.495 259.282C426.764 258.323 429.166 256.363 430.691 253.407L430.401 253.257ZM423.607 259.083L421.762 252.195L421.446 252.28L423.292 259.168L423.607 259.083ZM421.65 252.394C423.219 251.931 424.412 250.964 425.224 249.501L424.938 249.342C424.167 250.733 423.042 251.643 421.557 252.081L421.65 252.394ZM425.223 249.502C426.04 248.059 426.323 246.413 426.081 244.573L425.757 244.615C425.991 246.395 425.716 247.968 424.939 249.341L425.223 249.502ZM425.877 244.436L413.916 247.641L414.001 247.957L425.961 244.752L425.877 244.436ZM413.795 247.808L413.954 250.823L414.281 250.806L414.122 247.79L413.795 247.808ZM413.954 250.819C414.067 254.683 413.424 257.735 412.042 259.99L412.321 260.16C413.748 257.832 414.395 254.71 414.281 250.81L413.954 250.819ZM412.042 259.99C410.664 262.24 408.482 263.77 405.479 264.575L405.564 264.89C408.633 264.068 410.891 262.494 412.321 260.16L412.042 259.99ZM405.479 264.575C401.925 265.527 398.782 265.108 396.035 263.331L395.858 263.605C398.692 265.439 401.932 265.863 405.564 264.89L405.479 264.575ZM396.036 263.331C393.304 261.546 391.179 258.541 389.672 254.293L389.364 254.402C390.886 258.693 393.047 261.768 395.857 263.604L396.036 263.331ZM389.476 254.19L385.671 255.209L385.756 255.525L389.56 254.506L389.476 254.19ZM402.938 258.088C404.573 257.649 405.745 256.731 406.435 255.332L406.142 255.188C405.498 256.494 404.408 257.355 402.854 257.772L402.938 258.088ZM406.434 255.335C407.145 253.959 407.414 252.05 407.262 249.627L406.936 249.647C407.087 252.044 406.816 253.884 406.144 255.185L406.434 255.335ZM407.057 249.479L395.154 252.669L395.238 252.984L407.141 249.795L407.057 249.479ZM395.041 252.879C395.749 254.978 396.793 256.5 398.184 257.42L398.365 257.147C397.052 256.279 396.044 254.829 395.351 252.774L395.041 252.879ZM398.184 257.42C399.579 258.343 401.169 258.562 402.938 258.088L402.854 257.772C401.164 258.225 399.673 258.013 398.365 257.147L398.184 257.42ZM417.708 235.968C416.225 236.365 415.123 237.225 414.413 238.541L414.7 238.696C415.366 237.461 416.393 236.659 417.792 236.284L417.708 235.968ZM414.412 238.543C413.725 239.848 413.448 241.541 413.565 243.607L413.892 243.588C413.776 241.557 414.051 239.93 414.701 238.695L414.412 238.543ZM413.771 243.756L424.924 240.767L424.84 240.451L413.686 243.44L413.771 243.756ZM425.037 240.558C424.468 238.824 423.496 237.511 422.119 236.633L421.943 236.908C423.249 237.741 424.178 238.988 424.727 240.66L425.037 240.558ZM422.118 236.632C420.743 235.772 419.27 235.55 417.708 235.968L417.792 236.284C419.266 235.889 420.647 236.096 421.944 236.909L422.118 236.632Z" fill="black"/>
</g>
<defs>
<filter id="filter0_f" x="3" y="8" width="371" height="326" filterUnits="userSpaceOnUse" color-interpolation-filters="sRGB">
<feFlood flood-opacity="0" result="BackgroundImageFix"/>
<feBlend mode="normal" in="SourceGraphic" in2="BackgroundImageFix" result="shape"/>
<feGaussianBlur stdDeviation="40" result="effect1_foregroundBlur"/>
</filter>
<clipPath id="clip0">
<rect width="750" height="380" fill="white" transform="translate(-1)"/>
</clipPath>
</defs>
</svg>
