<svg width="208" height="35" viewBox="0 0 208 35" fill="none" xmlns="http://www.w3.org/2000/svg">
<path d="M52.574 2.488C53.774 1.312 55.316 0.723999 57.2 0.723999C59.084 0.723999 60.62 1.312 61.808 2.488C63.008 3.664 63.608 5.17 63.608 7.006C63.608 8.842 63.008 10.348 61.808 11.524C60.62 12.688 59.084 13.27 57.2 13.27C55.316 13.27 53.774 12.688 52.574 11.524C51.386 10.348 50.792 8.842 50.792 7.006C50.792 5.17 51.386 3.664 52.574 2.488ZM54.32 9.994C55.064 10.762 56.024 11.146 57.2 11.146C58.376 11.146 59.336 10.762 60.08 9.994C60.824 9.214 61.196 8.218 61.196 7.006C61.196 5.794 60.818 4.798 60.062 4.018C59.318 3.238 58.364 2.848 57.2 2.848C56.036 2.848 55.076 3.238 54.32 4.018C53.576 4.798 53.204 5.794 53.204 7.006C53.204 8.218 53.576 9.214 54.32 9.994ZM65.4405 13V5.206H67.6365V7.96H70.6965V5.206H72.8925V13H70.6965V9.832H67.6365V13H65.4405ZM81.8974 5.206V13H79.7014V7.078H77.5774V9.94C77.5774 10.948 77.3314 11.716 76.8394 12.244C76.3474 12.796 75.6454 13.072 74.7334 13.072C74.4934 13.072 74.2774 13.048 74.0854 13V11.128C74.2294 11.152 74.3434 11.164 74.4274 11.164C74.8234 11.164 75.1234 11.038 75.3274 10.786C75.5074 10.57 75.5974 10.24 75.5974 9.796V5.206H81.8974ZM89.9614 6.214V5.206H92.1574V13H89.9614V11.992C89.3734 12.832 88.5754 13.252 87.5674 13.252C86.3914 13.252 85.4314 12.85 84.6874 12.046C83.9554 11.242 83.5894 10.258 83.5894 9.094C83.5894 7.918 83.9494 6.934 84.6694 6.142C85.3894 5.35 86.3194 4.954 87.4594 4.954C88.5874 4.954 89.4214 5.374 89.9614 6.214ZM89.5654 7.528C89.1574 7.108 88.6414 6.898 88.0174 6.898C87.3934 6.898 86.8774 7.108 86.4694 7.528C86.0614 7.948 85.8574 8.47 85.8574 9.094C85.8574 9.718 86.0614 10.246 86.4694 10.678C86.8774 11.098 87.3934 11.308 88.0174 11.308C88.6414 11.308 89.1574 11.098 89.5654 10.678C89.9734 10.246 90.1774 9.718 90.1774 9.094C90.1774 8.47 89.9734 7.948 89.5654 7.528ZM94.251 5.206H96.447V10.012L100.047 5.206H102.243V13H100.047V8.194L96.447 13H94.251V5.206ZM99.759 1.3L101.199 1.984C100.959 2.656 100.557 3.136 99.993 3.424C99.429 3.7 98.847 3.838 98.247 3.838C97.647 3.838 97.065 3.7 96.501 3.424C95.937 3.136 95.535 2.656 95.295 1.984L96.735 1.3C96.807 1.624 96.981 1.894 97.257 2.11C97.545 2.326 97.875 2.434 98.247 2.434C98.595 2.434 98.913 2.338 99.201 2.146C99.489 1.954 99.675 1.672 99.759 1.3ZM104.323 13V5.206H106.519V7.96H109.579V5.206H111.775V13H109.579V9.832H106.519V13H104.323ZM113.544 9.868V7.852H118.224V9.868H113.544ZM119.985 13V5.206H122.181V11.128H124.701V5.206H126.897V11.128H129.417V5.206H131.613V13H119.985ZM133.696 5.206H135.892V8.23L138.808 5.206H141.544L138.016 8.68L141.724 13H138.916L136.216 9.778L135.892 10.102V13H133.696V5.206ZM143.614 6.052C144.406 5.32 145.456 4.954 146.764 4.954C148.072 4.954 149.122 5.32 149.914 6.052C150.79 6.844 151.228 7.864 151.228 9.112C151.228 10.348 150.79 11.362 149.914 12.154C149.122 12.886 148.072 13.252 146.764 13.252C145.456 13.252 144.406 12.886 143.614 12.154C142.738 11.362 142.3 10.348 142.3 9.112C142.3 7.864 142.738 6.844 143.614 6.052ZM145.198 10.66C145.618 11.092 146.14 11.308 146.764 11.308C147.388 11.308 147.91 11.092 148.33 10.66C148.75 10.228 148.96 9.712 148.96 9.112C148.96 8.5 148.75 7.978 148.33 7.546C147.91 7.114 147.388 6.898 146.764 6.898C146.14 6.898 145.618 7.114 145.198 7.546C144.778 7.978 144.568 8.5 144.568 9.112C144.568 9.712 144.778 10.228 145.198 10.66ZM159.839 5.206V13H157.643V7.078H155.519V9.94C155.519 10.948 155.273 11.716 154.781 12.244C154.289 12.796 153.587 13.072 152.675 13.072C152.435 13.072 152.219 13.048 152.027 13V11.128C152.171 11.152 152.285 11.164 152.369 11.164C152.765 11.164 153.065 11.038 153.269 10.786C153.449 10.57 153.539 10.24 153.539 9.796V5.206H159.839ZM167.903 6.214V5.206H170.099V13H167.903V11.992C167.315 12.832 166.517 13.252 165.509 13.252C164.333 13.252 163.373 12.85 162.629 12.046C161.897 11.242 161.531 10.258 161.531 9.094C161.531 7.918 161.891 6.934 162.611 6.142C163.331 5.35 164.261 4.954 165.401 4.954C166.529 4.954 167.363 5.374 167.903 6.214ZM167.507 7.528C167.099 7.108 166.583 6.898 165.959 6.898C165.335 6.898 164.819 7.108 164.411 7.528C164.003 7.948 163.799 8.47 163.799 9.094C163.799 9.718 164.003 10.246 164.411 10.678C164.819 11.098 165.335 11.308 165.959 11.308C166.583 11.308 167.099 11.098 167.507 10.678C167.915 10.246 168.119 9.718 168.119 9.094C168.119 8.47 167.915 7.948 167.507 7.528ZM51.044 22.206H58.424V30H56.228V24.078H53.24V30H51.044V22.206ZM62.7146 28.992V34.176H60.5186V22.206H62.7146V23.214C63.3146 22.374 64.1606 21.954 65.2526 21.954C66.3926 21.954 67.3166 22.344 68.0246 23.124C68.7326 23.904 69.0866 24.894 69.0866 26.094C69.0866 27.294 68.7206 28.29 67.9886 29.082C67.2686 29.862 66.3386 30.252 65.1986 30.252C64.1546 30.252 63.3266 29.832 62.7146 28.992ZM66.2066 24.528C65.7986 24.108 65.2826 23.898 64.6586 23.898C64.0346 23.898 63.5186 24.108 63.1106 24.528C62.7026 24.948 62.4986 25.47 62.4986 26.094C62.4986 26.718 62.7026 27.246 63.1106 27.678C63.5186 28.098 64.0346 28.308 64.6586 28.308C65.2826 28.308 65.7986 28.098 66.2066 27.678C66.6146 27.246 66.8186 26.718 66.8186 26.094C66.8186 25.47 66.6146 24.948 66.2066 24.528ZM71.7022 23.052C72.4942 22.32 73.5442 21.954 74.8522 21.954C76.1602 21.954 77.2102 22.32 78.0022 23.052C78.8782 23.844 79.3162 24.864 79.3162 26.112C79.3162 27.348 78.8782 28.362 78.0022 29.154C77.2102 29.886 76.1602 30.252 74.8522 30.252C73.5442 30.252 72.4942 29.886 71.7022 29.154C70.8262 28.362 70.3882 27.348 70.3882 26.112C70.3882 24.864 70.8262 23.844 71.7022 23.052ZM73.2862 27.66C73.7062 28.092 74.2282 28.308 74.8522 28.308C75.4762 28.308 75.9982 28.092 76.4182 27.66C76.8382 27.228 77.0482 26.712 77.0482 26.112C77.0482 25.5 76.8382 24.978 76.4182 24.546C75.9982 24.114 75.4762 23.898 74.8522 23.898C74.2282 23.898 73.7062 24.114 73.2862 24.546C72.8662 24.978 72.6562 25.5 72.6562 26.112C72.6562 26.712 72.8662 27.228 73.2862 27.66ZM81.0147 30V22.206H85.9827V24.078H83.2107V30H81.0147ZM89.3279 28.992V34.176H87.1319V22.206H89.3279V23.214C89.9279 22.374 90.7739 21.954 91.8659 21.954C93.0059 21.954 93.9299 22.344 94.6379 23.124C95.3459 23.904 95.6999 24.894 95.6999 26.094C95.6999 27.294 95.3339 28.29 94.6019 29.082C93.8819 29.862 92.9519 30.252 91.8119 30.252C90.7679 30.252 89.9399 29.832 89.3279 28.992ZM92.8199 24.528C92.4119 24.108 91.8959 23.898 91.2719 23.898C90.6479 23.898 90.1319 24.108 89.7239 24.528C89.3159 24.948 89.1119 25.47 89.1119 26.094C89.1119 26.718 89.3159 27.246 89.7239 27.678C90.1319 28.098 90.6479 28.308 91.2719 28.308C91.8959 28.308 92.4119 28.098 92.8199 27.678C93.2279 27.246 93.4319 26.718 93.4319 26.094C93.4319 25.47 93.2279 24.948 92.8199 24.528ZM103.374 23.214V22.206H105.57V30H103.374V28.992C102.786 29.832 101.988 30.252 100.98 30.252C99.8035 30.252 98.8435 29.85 98.0995 29.046C97.3675 28.242 97.0015 27.258 97.0015 26.094C97.0015 24.918 97.3615 23.934 98.0815 23.142C98.8015 22.35 99.7315 21.954 100.872 21.954C102 21.954 102.834 22.374 103.374 23.214ZM102.978 24.528C102.57 24.108 102.054 23.898 101.43 23.898C100.806 23.898 100.29 24.108 99.8815 24.528C99.4735 24.948 99.2695 25.47 99.2695 26.094C99.2695 26.718 99.4735 27.246 99.8815 27.678C100.29 28.098 100.806 28.308 101.43 28.308C102.054 28.308 102.57 28.098 102.978 27.678C103.386 27.246 103.59 26.718 103.59 26.094C103.59 25.47 103.386 24.948 102.978 24.528ZM106.835 30L108.257 21.99H109.877L112.019 26.688L114.161 21.99H115.781L117.203 30H115.007L114.359 25.77L112.343 30.162H111.695L109.679 25.77L109.031 30H106.835ZM117.628 30L119.05 21.99H120.67L122.812 26.688L124.954 21.99H126.574L127.996 30H125.8L125.152 25.77L123.136 30.162H122.488L120.472 25.77L119.824 30H117.628ZM129.249 22.206H131.445V27.012L135.045 22.206H137.241V30H135.045V25.194L131.445 30H129.249V22.206ZM141.517 28.992V34.176H139.321V22.206H141.517V23.214C142.117 22.374 142.963 21.954 144.055 21.954C145.195 21.954 146.119 22.344 146.827 23.124C147.535 23.904 147.889 24.894 147.889 26.094C147.889 27.294 147.523 28.29 146.791 29.082C146.071 29.862 145.141 30.252 144.001 30.252C142.957 30.252 142.129 29.832 141.517 28.992ZM145.009 24.528C144.601 24.108 144.085 23.898 143.461 23.898C142.837 23.898 142.321 24.108 141.913 24.528C141.505 24.948 141.301 25.47 141.301 26.094C141.301 26.718 141.505 27.246 141.913 27.678C142.321 28.098 142.837 28.308 143.461 28.308C144.085 28.308 144.601 28.098 145.009 27.678C145.417 27.246 145.621 26.718 145.621 26.094C145.621 25.47 145.417 24.948 145.009 24.528ZM150.505 23.052C151.297 22.32 152.347 21.954 153.655 21.954C154.963 21.954 156.013 22.32 156.805 23.052C157.681 23.844 158.119 24.864 158.119 26.112C158.119 27.348 157.681 28.362 156.805 29.154C156.013 29.886 154.963 30.252 153.655 30.252C152.347 30.252 151.297 29.886 150.505 29.154C149.629 28.362 149.191 27.348 149.191 26.112C149.191 24.864 149.629 23.844 150.505 23.052ZM152.089 27.66C152.509 28.092 153.031 28.308 153.655 28.308C154.279 28.308 154.801 28.092 155.221 27.66C155.641 27.228 155.851 26.712 155.851 26.112C155.851 25.5 155.641 24.978 155.221 24.546C154.801 24.114 154.279 23.898 153.655 23.898C153.031 23.898 152.509 24.114 152.089 24.546C151.669 24.978 151.459 25.5 151.459 26.112C151.459 26.712 151.669 27.228 152.089 27.66ZM159.817 22.206H163.255C164.083 22.206 164.701 22.362 165.109 22.674C165.613 23.058 165.865 23.568 165.865 24.204C165.865 24.54 165.769 24.858 165.577 25.158C165.397 25.446 165.133 25.662 164.785 25.806C165.169 25.878 165.511 26.046 165.811 26.31C166.207 26.67 166.405 27.156 166.405 27.768C166.405 28.5 166.129 29.076 165.577 29.496C165.121 29.832 164.539 30 163.831 30H159.817V22.206ZM162.013 25.302H163.021C163.249 25.302 163.441 25.254 163.597 25.158C163.789 25.038 163.885 24.858 163.885 24.618C163.885 24.366 163.801 24.18 163.633 24.06C163.513 23.976 163.297 23.934 162.985 23.934H162.013V25.302ZM162.013 28.272H163.039C163.411 28.272 163.681 28.206 163.849 28.074C164.041 27.93 164.137 27.72 164.137 27.444C164.137 27.192 164.041 27.006 163.849 26.886C163.681 26.766 163.429 26.706 163.093 26.706H162.013V28.272ZM174.002 23.214V22.206H176.198V30H174.002V28.992C173.414 29.832 172.616 30.252 171.608 30.252C170.432 30.252 169.472 29.85 168.728 29.046C167.996 28.242 167.63 27.258 167.63 26.094C167.63 24.918 167.99 23.934 168.71 23.142C169.43 22.35 170.36 21.954 171.5 21.954C172.628 21.954 173.462 22.374 174.002 23.214ZM173.606 24.528C173.198 24.108 172.682 23.898 172.058 23.898C171.434 23.898 170.918 24.108 170.51 24.528C170.102 24.948 169.898 25.47 169.898 26.094C169.898 26.718 170.102 27.246 170.51 27.678C170.918 28.098 171.434 28.308 172.058 28.308C172.682 28.308 173.198 28.098 173.606 27.678C174.014 27.246 174.218 26.718 174.218 26.094C174.218 25.47 174.014 24.948 173.606 24.528ZM178.292 30V22.206H180.488V24.96H183.548V22.206H185.744V30H183.548V26.832H180.488V30H178.292ZM187.837 22.206H190.033V27.012L193.633 22.206H195.829V30H193.633V25.194L190.033 30H187.837V22.206ZM197.225 30L199.529 27.084C199.025 27.012 198.605 26.808 198.269 26.472C197.861 26.064 197.657 25.512 197.657 24.816C197.657 24.012 197.969 23.358 198.593 22.854C199.145 22.422 199.949 22.206 201.005 22.206H204.101V30H201.905V27.264H201.653L199.745 30H197.225ZM201.905 25.68V23.934H200.951C200.615 23.934 200.369 24.006 200.213 24.15C200.021 24.33 199.925 24.558 199.925 24.834C199.925 25.122 200.021 25.338 200.213 25.482C200.381 25.614 200.627 25.68 200.951 25.68H201.905Z" fill="#1F1F1F"/>
<rect y="1" width="34" height="30" rx="10" fill="black"/>
<path d="M14.7997 24L19.1996 8M23.5995 12L27.9993 16L23.5995 20M10.3999 20L6 16L10.3999 12" stroke="white" stroke-width="2" stroke-linecap="round" stroke-linejoin="round"/>
</svg>
